<?xml version='1.0' encoding='iso-8859-1'?>
<!DOCTYPE svg PUBLIC '-//W3C//DTD SVG 1.1//EN' 'http://www.w3.org/Graphics/SVG/1.1/DTD/svg11.dtd'>
<svg version="1.1" xmlns="http://www.w3.org/2000/svg" viewBox="0 0 512 512" xmlns:xlink="http://www.w3.org/1999/xlink" enable-background="new 0 0 512 512" style="fill:#eff3d0;">
  <path d="m378.961,263.109c50.43,0 93.039-41.25 93.039-90.078 0-29.406-15.984-57.164-41.797-74.234-13.617-38.836-50.359-65.617-92.719-65.617-2.984,0-5.961,0.141-8.922,0.414-18.367-21.156-45.023-33.594-74.046-33.594-29.023,0-55.672,12.438-74.039,33.594-2.961-0.273-5.938-0.414-8.922-0.414-42.461,0-79.289,26.914-92.82,65.891-23.946,16.648-38.735,44.21-38.735,73.96 0,49.672 40.406,90.078 90.07,90.078 9.656,0 18.313-0.711 26.078-1.992v152.508c0,18.633-16.554,34.375-36.148,34.375-17.672,0-32,14.328-32,32s14.328,32 32,32l272-.016c17.672,0 32-14.328 32-32s-14.328-32-32-32c-20.102,0-39.109-16.703-39.109-34.375v-152.492c7.757,1.281 16.414,1.992 26.07,1.992zm-178.961-151.109c-26.469,0-48,21.531-48,48 0,8.836-7.164,16-16,16s-16-7.164-16-16c0-44.109 35.891-80 80-80 8.836,0 16,7.164 16,16s-7.164,16-16,16zm112,276.734c0,8.836-7.164,16-16,16s-16-7.164-16-16v-99.554c0-8.836 7.164-16 16-16s16,7.164 16,16v99.554z"/>
</svg>
